<svg width="168" height="144" viewBox="0 0 168 144" fill="none" xmlns="http://www.w3.org/2000/svg">
<path d="M83.6667 54.5V112.833M54.5 83.6667H112.833M2 13.6667V130.333C2 133.428 3.22916 136.395 5.41709 138.583C7.60501 140.771 10.5725 142 13.6667 142H153.667C156.761 142 159.728 140.771 161.916 138.583C164.104 136.395 165.333 133.428 165.333 130.333V37C165.333 33.9058 164.104 30.9383 161.916 28.7504C159.728 26.5625 156.761 25.3333 153.667 25.3333H83.6667L60.3333 2H13.6667C10.5725 2 7.60501 3.22916 5.41709 5.41709C3.22916 7.60501 2 10.5725 2 13.6667Z" stroke="#09144D" stroke-width="4"/>
</svg>
