<svg width="168" height="144" viewBox="0 0 168 144" fill="none" xmlns="http://www.w3.org/2000/svg">
<path d="M17.6667 144C13.0833 144 9.15972 142.238 5.89583 138.713C2.63194 135.188 1 130.95 1 126V18C1 13.05 2.63194 8.8125 5.89583 5.2875C9.15972 1.7625 13.0833 0 17.6667 0H67.6667L84.3333 18H151C155.583 18 159.507 19.7625 162.771 23.2875C166.035 26.8125 167.667 31.05 167.667 36V126C167.667 130.95 166.035 135.188 162.771 138.713C159.507 142.238 155.583 144 151 144H17.6667Z" fill="#09144D"/>
<mask id="path-2-inside-1_6132_850" fill="white">
<path d="M16.1222 0H67.1223L83.6223 18H0C0 10.695 3.92485 5.60574 6.47953 3.68441C10.2181 -8.075e-08 16.1222 0 16.1222 0Z"/>
</mask>
<path d="M6.47953 3.68441L-23.5737 -36.2756L-26.2403 -34.2701L-28.6167 -31.9281L6.47953 3.68441ZM-28.6167 -31.9281C-36.1805 -24.474 -42.103 -14.6558 -44.8569 -2.95196L52.4848 19.952C50.7038 27.5215 46.7368 34.2108 41.5758 39.297L-28.6167 -31.9281ZM36.5328 43.6444C34.8971 44.8746 31.8978 46.9458 27.6381 48.8091L-12.438 -42.8091C-17.3405 -40.6647 -21.1022 -38.1344 -23.5737 -36.2756L36.5328 43.6444ZM67.1223 0L140.838 -67.5724L111.112 -100H67.1223V0ZM16.1222 0L16.1222 100H16.1222V0ZM0 18H-100V118H0V18ZM83.6223 18V118H310.946L157.338 -49.5724L83.6223 18ZM6.47953 3.68441L66.586 83.6044L71.9191 79.5935L76.672 74.9095L6.47953 3.68441ZM67.1223 -100H16.1222V100H67.1223V-100ZM0 118H83.6223V-82H0V118ZM157.338 -49.5724L140.838 -67.5724L-6.59314 67.5724L9.90686 85.5725L157.338 -49.5724ZM16.1222 0C16.1222 -100 16.0917 -100 16.0611 -100C16.0509 -100 16.0202 -99.9999 15.9997 -99.9999C15.9587 -99.9999 15.9175 -99.9998 15.8761 -99.9997C15.7932 -99.9995 15.7096 -99.9992 15.6251 -99.9988C15.4562 -99.9979 15.2841 -99.9967 15.1089 -99.9949C14.7584 -99.9914 14.3947 -99.986 14.0183 -99.9784C13.2662 -99.963 12.4588 -99.9386 11.6005 -99.902C9.89207 -99.8291 7.93618 -99.7062 5.77474 -99.5028C1.55946 -99.1062 -3.99076 -98.3531 -10.3574 -96.8443C-21.5119 -94.2008 -43.7052 -87.2584 -63.713 -67.5407L76.672 74.9095C60.4029 90.9428 43.0309 96.043 35.7631 97.7654C31.3398 98.8136 27.4993 99.3365 24.5078 99.6179C22.9583 99.7637 21.4929 99.8579 20.1219 99.9164C19.4323 99.9458 18.7554 99.9666 18.0917 99.9802C17.7595 99.9869 17.4294 99.9919 17.1015 99.9951C16.9375 99.9968 16.7739 99.998 16.6107 99.9988C16.5291 99.9992 16.4476 99.9995 16.3662 99.9997C16.3255 99.9998 16.2848 99.9999 16.2441 99.9999C16.2238 99.9999 16.1933 100 16.1832 100C16.1527 100 16.1222 100 16.1222 0ZM100 18C100 32.6717 95.9879 45.6792 90.4129 56.077C85.3768 65.4695 77.7639 75.1977 66.586 83.6044L-53.627 -76.2356C-77.7226 -58.1137 -100 -24.9553 -100 18H100Z" fill="white" fill-opacity="0.2" mask="url(#path-2-inside-1_6132_850)"/>
</svg>
