<svg width="485" height="75" viewBox="0 0 485 75" fill="none" xmlns="http://www.w3.org/2000/svg">
<g filter="url(#filter0_dd_4135_489)">
<rect x="3" y="3" width="479" height="67" rx="10" fill="white"/>
<rect x="141" y="10" width="203" height="54" rx="10" fill="white"/>
<rect width="24" height="24" transform="translate(156 25)" fill="white"/>
<path fill-rule="evenodd" clip-rule="evenodd" d="M179.04 37.2615C179.04 36.446 178.967 35.6619 178.831 34.9092H168V39.3576H174.189C173.922 40.7951 173.112 42.013 171.894 42.8285V45.714H175.611C177.785 43.7119 179.04 40.7637 179.04 37.2615Z" fill="#4285F4"/>
<path fill-rule="evenodd" clip-rule="evenodd" d="M168 48.4998C171.105 48.4998 173.708 47.47 175.611 45.7137L171.894 42.8282C170.864 43.5182 169.547 43.9259 168 43.9259C165.005 43.9259 162.469 41.903 161.565 39.1848H157.723V42.1644C159.615 45.9228 163.504 48.4998 168 48.4998Z" fill="#34A853"/>
<path fill-rule="evenodd" clip-rule="evenodd" d="M161.565 39.185C161.335 38.495 161.205 37.7579 161.205 37C161.205 36.242 161.335 35.505 161.565 34.815V31.8354H157.723C156.944 33.3879 156.5 35.1443 156.5 37C156.5 38.8557 156.944 40.612 157.723 42.1645L161.565 39.185Z" fill="#FBBC05"/>
<path fill-rule="evenodd" clip-rule="evenodd" d="M168 30.0739C169.688 30.0739 171.204 30.6541 172.396 31.7936L175.694 28.4952C173.703 26.6395 171.1 25.5 168 25.5C163.504 25.5 159.615 28.077 157.723 31.8355L161.565 34.815C162.469 32.0968 165.005 30.0739 168 30.0739Z" fill="#EA4335"/>
<path d="M197.74 27.32H209.34V29.42H197.74V27.32ZM195.82 35.2H212.58V37.36H195.82V35.2ZM202.76 36.72H205.44V44.78H202.76V36.72ZM207.98 27.32H210.6V28.96C210.6 29.6267 210.587 30.3333 210.56 31.08C210.547 31.8267 210.493 32.6467 210.4 33.54C210.307 34.42 210.133 35.4067 209.88 36.5L207.28 36.18C207.627 34.6467 207.827 33.3067 207.88 32.16C207.947 31 207.98 29.9333 207.98 28.96V27.32ZM216.278 26.98H227.998V29.08H216.278V26.98ZM214.218 32.76H230.998V34.88H214.218V32.76ZM226.398 26.98H229.018V28.24C229.018 28.9067 228.998 29.6667 228.958 30.52C228.918 31.36 228.778 32.32 228.538 33.4L225.918 33.16C226.158 32.1067 226.298 31.1867 226.338 30.4C226.378 29.6133 226.398 28.8933 226.398 28.24V26.98ZM216.078 36.14H228.978V41.34H218.758V43.22H216.098V39.38H226.318V38.18H216.078V36.14ZM216.098 42.58H229.458V44.64H216.098V42.58ZM232.617 40.58H249.397V42.74H232.617V40.58ZM239.657 37.06H242.297V41.44H239.657V37.06ZM234.517 27.44H247.497V33.62H237.177V36.72H234.537V31.54H244.857V29.56H234.517V27.44ZM234.537 35.68H247.917V37.8H234.537V35.68ZM263.136 31.14H266.876V33.24H263.136V31.14ZM263.036 35.76H266.816V37.88H263.036V35.76ZM269.396 26.24H271.936V44.76H269.396V26.24ZM265.596 26.64H268.076V43.94H265.596V26.64ZM261.416 28.42H263.956C263.956 30.18 263.749 31.82 263.336 33.34C262.936 34.8467 262.242 36.2333 261.256 37.5C260.282 38.7667 258.936 39.9067 257.216 40.92L255.716 39.06C257.116 38.22 258.229 37.3067 259.056 36.32C259.896 35.32 260.496 34.22 260.856 33.02C261.229 31.8067 261.416 30.4533 261.416 28.96V28.42ZM256.776 28.42H262.296V30.56H256.776V28.42ZM274.374 35.24H291.154V37.34H274.374V35.24ZM281.394 32.84H284.054V36.16H281.394V32.84ZM281.374 26.58H283.654V27.14C283.654 27.82 283.548 28.4733 283.334 29.1C283.121 29.7133 282.808 30.28 282.394 30.8C281.981 31.32 281.474 31.7933 280.874 32.22C280.274 32.6333 279.581 32.9867 278.794 33.28C278.021 33.5733 277.154 33.7867 276.194 33.92L275.214 31.82C276.054 31.7267 276.801 31.5733 277.454 31.36C278.121 31.1333 278.694 30.8667 279.174 30.56C279.668 30.2533 280.074 29.9133 280.394 29.54C280.728 29.1667 280.974 28.78 281.134 28.38C281.294 27.9667 281.374 27.5533 281.374 27.14V26.58ZM281.814 26.58H284.074V27.14C284.074 27.5667 284.154 27.9867 284.314 28.4C284.474 28.8133 284.714 29.2067 285.034 29.58C285.354 29.94 285.754 30.2733 286.234 30.58C286.728 30.8867 287.308 31.1467 287.974 31.36C288.641 31.5733 289.394 31.7267 290.234 31.82L289.254 33.92C288.308 33.7867 287.441 33.5733 286.654 33.28C285.881 32.9867 285.188 32.64 284.574 32.24C283.974 31.8267 283.468 31.36 283.054 30.84C282.641 30.3067 282.328 29.7333 282.114 29.12C281.914 28.5067 281.814 27.8467 281.814 27.14V26.58ZM276.234 38.64H289.114V44.78H286.454V40.74H276.234V38.64ZM304.653 26.26H307.313V44.78H304.653V26.26ZM306.713 33.48H309.973V35.68H306.713V33.48ZM292.693 28.98H303.493V31.1H292.693V28.98ZM298.133 32.16C299.026 32.16 299.826 32.3533 300.533 32.74C301.239 33.1133 301.793 33.6267 302.193 34.28C302.606 34.9333 302.813 35.6933 302.813 36.56C302.813 37.4267 302.606 38.1933 302.193 38.86C301.793 39.5133 301.239 40.0333 300.533 40.42C299.839 40.7933 299.039 40.98 298.133 40.98C297.239 40.98 296.433 40.7933 295.713 40.42C295.006 40.0333 294.446 39.5133 294.033 38.86C293.633 38.1933 293.433 37.4267 293.433 36.56C293.433 35.6933 293.633 34.9333 294.033 34.28C294.446 33.6267 295.006 33.1133 295.713 32.74C296.433 32.3533 297.239 32.16 298.133 32.16ZM298.133 34.32C297.706 34.32 297.333 34.4067 297.013 34.58C296.693 34.7533 296.439 35.0067 296.253 35.34C296.066 35.6733 295.973 36.08 295.973 36.56C295.973 37.0267 296.066 37.4333 296.253 37.78C296.439 38.1133 296.693 38.3733 297.013 38.56C297.333 38.7333 297.706 38.82 298.133 38.82C298.546 38.82 298.913 38.7333 299.233 38.56C299.553 38.3733 299.806 38.1133 299.993 37.78C300.179 37.4333 300.273 37.0267 300.273 36.56C300.273 36.08 300.179 35.6733 299.993 35.34C299.806 35.0067 299.553 34.7533 299.233 34.58C298.913 34.4067 298.546 34.32 298.133 34.32ZM296.773 26.56H299.453V29.8H296.773V26.56ZM323.951 26.24H326.611V44.76H323.951V26.24ZM318.491 28.16H321.111C321.111 29.5733 320.971 30.9267 320.691 32.22C320.424 33.5 319.971 34.7067 319.331 35.84C318.704 36.9733 317.838 38.0267 316.731 39C315.638 39.96 314.271 40.84 312.631 41.64L311.231 39.54C313.018 38.6733 314.438 37.72 315.491 36.68C316.558 35.6267 317.324 34.44 317.791 33.12C318.258 31.7867 318.491 30.2933 318.491 28.64V28.16ZM312.231 28.16H319.731V30.28H312.231V28.16Z" fill="black" fill-opacity="0.54"/>
</g>
<defs>
<filter id="filter0_dd_4135_489" x="0" y="0" width="485" height="75" filterUnits="userSpaceOnUse" color-interpolation-filters="sRGB">
<feFlood flood-opacity="0" result="BackgroundImageFix"/>
<feColorMatrix in="SourceAlpha" type="matrix" values="0 0 0 0 0 0 0 0 0 0 0 0 0 0 0 0 0 0 127 0" result="hardAlpha"/>
<feOffset dy="2"/>
<feGaussianBlur stdDeviation="1.5"/>
<feColorMatrix type="matrix" values="0 0 0 0 0 0 0 0 0 0 0 0 0 0 0 0 0 0 0.168 0"/>
<feBlend mode="normal" in2="BackgroundImageFix" result="effect1_dropShadow_4135_489"/>
<feColorMatrix in="SourceAlpha" type="matrix" values="0 0 0 0 0 0 0 0 0 0 0 0 0 0 0 0 0 0 127 0" result="hardAlpha"/>
<feOffset/>
<feGaussianBlur stdDeviation="1.5"/>
<feColorMatrix type="matrix" values="0 0 0 0 0 0 0 0 0 0 0 0 0 0 0 0 0 0 0.084 0"/>
<feBlend mode="normal" in2="effect1_dropShadow_4135_489" result="effect2_dropShadow_4135_489"/>
<feBlend mode="normal" in="SourceGraphic" in2="effect2_dropShadow_4135_489" result="shape"/>
</filter>
</defs>
</svg>
