<svg width="42" height="42" viewBox="0 0 42 42" fill="none" xmlns="http://www.w3.org/2000/svg">
<g clip-path="url(#clip0_4014_507)">
<path d="M41.3579 0.0743415C41.6941 0.298509 41.8398 0.527507 42 0.902344C42.0309 1.18688 42.0309 1.18688 42.0312 1.50706C42.0316 1.56645 42.032 1.62585 42.0324 1.68705C42.0333 1.88616 42.0326 2.08522 42.0318 2.28433C42.0321 2.42849 42.0326 2.57264 42.0331 2.7168C42.0343 3.11302 42.034 3.50922 42.0334 3.90543C42.033 4.33271 42.034 4.75998 42.0349 5.18725C42.0363 6.02434 42.0363 6.86142 42.0359 7.6985C42.0356 8.37876 42.0357 9.05901 42.0361 9.73926C42.0362 9.83602 42.0362 9.93277 42.0363 10.0325C42.0364 10.229 42.0366 10.4255 42.0367 10.6221C42.0378 12.4659 42.0374 14.3097 42.0364 16.1536C42.0356 17.8411 42.0367 19.5286 42.0386 21.2161C42.0406 22.9481 42.0414 24.6802 42.0409 26.4122C42.0406 27.3849 42.0408 28.3576 42.0422 29.3303C42.0434 30.1583 42.0435 30.9863 42.042 31.8143C42.0413 32.2368 42.0412 32.6594 42.0424 33.0819C42.0436 33.4687 42.0432 33.8554 42.0416 34.2421C42.0413 34.3821 42.0415 34.5221 42.0424 34.6621C42.0435 34.8523 42.0425 35.0424 42.0411 35.2326C42.0411 35.3383 42.041 35.444 42.041 35.5528C41.9784 36.0025 41.7946 36.3022 41.4668 36.6218C41.0378 36.8134 40.6571 36.8259 40.1953 36.75C39.6747 36.5402 39.3414 36.0348 38.9926 35.6149C38.5819 35.1268 38.1386 34.6739 37.6882 34.2224C37.6175 34.151 37.5468 34.0795 37.474 34.0059C36.9846 33.5187 36.4696 33.0785 35.9297 32.6484C35.8277 32.5644 35.7259 32.4801 35.6243 32.3956C34.4434 31.425 33.1626 30.6025 31.8281 29.8594C31.7591 29.8209 31.6902 29.7824 31.6191 29.7428C29.2019 28.4081 26.6199 27.4911 23.9262 26.896C23.625 26.8242 23.625 26.8242 23.543 26.7422C23.5349 26.5264 23.5323 26.3128 23.5331 26.097C23.533 26.0286 23.533 25.9602 23.5329 25.8897C23.5328 25.6587 23.5332 25.4277 23.5337 25.1967C23.5337 25.0318 23.5337 24.867 23.5336 24.7021C23.5336 24.253 23.5341 23.8038 23.5347 23.3547C23.5352 22.8859 23.5352 22.4171 23.5353 21.9483C23.5356 21.0599 23.5362 20.1715 23.5371 19.2831C23.538 18.2719 23.5384 17.2608 23.5388 16.2497C23.5397 14.169 23.5411 12.0884 23.543 10.0078C23.6608 9.96812 23.7786 9.92853 23.8964 9.88899C23.9949 9.85591 23.9949 9.85591 24.0953 9.82216C24.3138 9.75113 24.5334 9.69373 24.7571 9.64092C26.8499 9.1317 28.8285 8.41431 30.7617 7.46485C30.8247 7.43413 30.8877 7.40341 30.9527 7.37176C32.7633 6.47967 34.4709 5.32029 36.0117 4.01953C36.0954 3.95112 36.179 3.8827 36.2652 3.81221C37.4026 2.87223 38.4932 1.82769 39.4006 0.662339C39.8885 0.0626467 40.6005 -0.241665 41.3579 0.0743415Z" fill="white"/>
<path d="M21 10.3359C21 15.6417 21 20.9475 21 26.4141C20.5669 26.387 20.1338 26.3599 19.6875 26.332C19.3988 26.3262 19.1121 26.3222 18.8236 26.324C18.7508 26.3241 18.678 26.3243 18.603 26.3244C18.3766 26.3248 18.1502 26.3259 17.9238 26.3269C17.7678 26.3273 17.6117 26.3277 17.4557 26.328C17.0785 26.3289 16.7014 26.3303 16.3242 26.332C16.3464 26.3761 16.3686 26.4201 16.3914 26.4655C16.9324 27.5402 17.4726 28.6153 18.0121 29.6907C18.2729 30.2108 18.5341 30.7308 18.7958 31.2504C19.0485 31.7522 19.3005 32.2544 19.5521 32.7567C19.6481 32.948 19.7443 33.1392 19.8407 33.3303C19.976 33.5986 20.1105 33.8672 20.2448 34.136C20.2846 34.2144 20.3244 34.2927 20.3653 34.3735C20.796 35.2399 21.0748 36.0354 20.8257 36.9961C20.5033 37.9216 19.8098 38.548 19.1272 39.2201C18.9599 39.3849 18.7935 39.5505 18.6272 39.7163C18.1193 40.2211 17.6089 40.7162 17.0625 41.1797C16.9711 41.2653 16.9711 41.2653 16.8779 41.3527C16.2715 41.9212 15.7549 42.0406 14.9302 42.0346C14.2518 42.0104 13.6748 41.8086 13.1817 41.3333C12.642 40.7358 12.38 39.9668 12.1111 39.2222C12.0699 39.11 12.0287 38.998 11.9873 38.8859C11.8991 38.6463 11.8113 38.4066 11.7239 38.1667C11.585 37.7852 11.4449 37.4041 11.3046 37.0231C11.2808 36.9586 11.257 36.894 11.2325 36.8274C11.1839 36.6957 11.1354 36.5639 11.0868 36.4321C11.0129 36.2312 10.939 36.0303 10.8651 35.8293C10.3666 34.4735 9.85768 33.1217 9.34709 31.7704C9.17606 31.3178 9.00519 30.865 8.83428 30.4123C8.77362 30.2517 8.71295 30.091 8.65228 29.9304C8.19966 28.7317 7.75013 27.5319 7.30078 26.332C7.21767 26.3299 7.13455 26.3278 7.04892 26.3256C6.93805 26.321 6.82718 26.3163 6.71631 26.3115C6.66175 26.3104 6.60718 26.3092 6.55097 26.308C6.03155 26.2825 5.73196 26.0874 5.38458 25.7136C5.19114 25.3055 5.21456 24.9417 5.22949 24.4966C5.23097 24.4127 5.23245 24.3289 5.23398 24.2425C5.23783 24.0366 5.24321 23.8308 5.25 23.625C5.1956 23.6257 5.1412 23.6265 5.08514 23.6272C4.51826 23.6345 3.95139 23.6394 3.38447 23.643C3.17298 23.6447 2.96149 23.6469 2.75001 23.6498C2.44579 23.6537 2.14162 23.6556 1.83737 23.657C1.69584 23.6596 1.69584 23.6596 1.55145 23.6622C1.05076 23.6623 0.709062 23.6586 0.328126 23.2969C-0.0470745 22.8566 -0.0470223 22.4953 -0.0424564 21.9434C-0.0430314 21.8577 -0.0436064 21.772 -0.0441988 21.6837C-0.0456402 21.4011 -0.0446877 21.1185 -0.043578 20.8359C-0.043799 20.6392 -0.0441175 20.4424 -0.0445292 20.2457C-0.0450127 19.8336 -0.0443106 19.4215 -0.0427769 19.0095C-0.0409075 18.4815 -0.0419834 17.9536 -0.0439485 17.4256C-0.0451347 17.0194 -0.0447559 16.6132 -0.0439059 16.207C-0.0436872 16.0124 -0.0439551 15.8177 -0.0447195 15.623C-0.0455537 15.3509 -0.0442825 15.0788 -0.0424564 14.8066C-0.0431206 14.7263 -0.0437848 14.646 -0.0444692 14.5633C-0.0386689 14.0962 0.0135443 13.8223 0.328126 13.4531C0.776146 13.0276 1.25501 13.0825 1.83737 13.093C1.935 13.0934 2.03262 13.0939 2.13321 13.0944C2.44414 13.0962 2.755 13.1003 3.06592 13.1045C3.27708 13.1061 3.48825 13.1076 3.69942 13.109C4.21631 13.1126 4.73315 13.1181 5.25 13.125C5.24828 13.0729 5.24656 13.0208 5.24479 12.9671C5.23794 12.7293 5.23369 12.4914 5.22949 12.2534C5.22674 12.1715 5.22399 12.0895 5.22116 12.0051C5.21469 11.5163 5.22986 11.2029 5.57813 10.8281C5.94194 10.5432 6.17682 10.4589 6.63728 10.458C6.71986 10.4571 6.71986 10.4571 6.80411 10.4563C6.98755 10.4548 7.17091 10.4557 7.35436 10.4565C7.48631 10.4559 7.61827 10.4552 7.75023 10.4544C8.10804 10.4524 8.46583 10.4525 8.82365 10.4529C9.19886 10.4529 9.57405 10.4511 9.94926 10.4494C10.6605 10.4465 11.3718 10.4452 12.0831 10.4445C13.1248 10.4434 14.1665 10.4403 15.2083 10.4368C15.2849 10.4365 15.3615 10.4362 15.4405 10.436C15.5934 10.4355 15.7463 10.4349 15.8992 10.4344C16.3451 10.4329 16.7911 10.432 17.237 10.4316C17.5154 10.4313 17.7938 10.4307 18.0723 10.43C18.2006 10.4297 18.3289 10.4296 18.4572 10.4297C19.0776 10.4299 19.6922 10.4237 20.3094 10.3535C20.5388 10.3332 20.7697 10.3359 21 10.3359Z" fill="white"/>
</g>
<defs>
<clipPath id="clip0_4014_507">
<rect width="42" height="42" fill="white"/>
</clipPath>
</defs>
</svg>
