<svg width="14" height="16" viewBox="0 0 14 16" fill="none" xmlns="http://www.w3.org/2000/svg">
<path d="M13.267 1.96V13.96C13.267 15.3 12.347 15.64 11.587 15.64C10.707 15.64 9.98703 15.38 9.58703 14.76L4.18703 6.58V14.1C4.18703 15.2 3.36703 15.64 2.50703 15.64C1.56703 15.64 0.727031 15.16 0.727031 14.1V1.88C0.727031 1.26 1.30703 0.479999 2.50703 0.479999C3.60703 0.479999 4.12703 0.759999 4.82703 1.82L9.80703 9.48V1.96C9.80703 0.939999 10.687 0.479999 11.587 0.479999C12.507 0.479999 13.267 0.98 13.267 1.96Z" fill="#FF0000"/>
</svg>
